<svg width="1192" height="194" viewBox="0 0 1192 194" fill="none" xmlns="http://www.w3.org/2000/svg">
<path d="M406.062 134.077L368.938 135.89L369.188 155.452L423.188 152.39L423.438 164.702L357.438 168.265L356 79.2021L423.875 78.1396L423.438 90.0771L368.312 90.9521L368.688 123.577L405.812 122.077L406.062 134.077ZM520.625 121.827C520.625 127.66 519.604 132.931 517.562 137.64C515.562 142.306 512.833 146.452 509.375 150.077C505.958 153.702 501.958 156.827 497.375 159.452C492.792 162.035 487.958 164.16 482.875 165.827C477.792 167.494 472.604 168.723 467.312 169.515C462.021 170.306 456.917 170.702 452 170.702C450.333 170.702 448.688 170.66 447.062 170.577C445.438 170.494 443.896 170.327 442.438 170.077L440 77.2646C443.25 77.0146 446.375 76.8271 449.375 76.7021C452.375 76.5771 455.188 76.5146 457.812 76.5146C462.438 76.5146 467.208 76.7021 472.125 77.0771C477.042 77.4105 481.812 78.1396 486.438 79.2646C491.104 80.348 495.5 81.9105 499.625 83.9521C503.792 85.9938 507.417 88.7021 510.5 92.0771C513.625 95.4105 516.083 99.5146 517.875 104.39C519.708 109.265 520.625 115.077 520.625 121.827ZM508.875 121.202C508.75 117.16 508.062 113.515 506.812 110.265C505.562 106.973 503.854 104.077 501.688 101.577C499.562 99.0771 497.062 96.9313 494.188 95.1396C491.312 93.3063 488.208 91.8063 484.875 90.6396C481.542 89.473 478.042 88.6188 474.375 88.0771C470.708 87.5355 467.021 87.2646 463.312 87.2646C461.729 87.2646 460.042 87.3271 458.25 87.4521C456.5 87.5355 454.688 87.6813 452.812 87.8896L454.75 158.577C455.458 158.66 456.167 158.702 456.875 158.702C457.625 158.702 458.354 158.702 459.062 158.702C463.229 158.702 467.375 158.327 471.5 157.577C475.625 156.827 479.542 155.723 483.25 154.265C487 152.806 490.458 151.015 493.625 148.89C496.792 146.723 499.521 144.265 501.812 141.515C504.104 138.723 505.875 135.64 507.125 132.265C508.417 128.848 509 125.16 508.875 121.202ZM616.75 151.39C614.625 154.473 612.167 157.265 609.375 159.765C606.583 162.223 603.542 164.327 600.25 166.077C597 167.827 593.521 169.181 589.812 170.14C586.146 171.098 582.333 171.577 578.375 171.577C574 171.577 569.792 170.994 565.75 169.827C561.75 168.702 558 167.098 554.5 165.015C551 162.89 547.812 160.369 544.938 157.452C542.062 154.494 539.604 151.223 537.562 147.64C535.521 144.056 533.938 140.202 532.812 136.077C531.688 131.952 531.125 127.66 531.125 123.202C531.125 118.744 531.688 114.452 532.812 110.327C533.938 106.202 535.521 102.348 537.562 98.7646C539.604 95.1813 542.062 91.9313 544.938 89.0146C547.812 86.0563 551 83.5355 554.5 81.4521C558 79.3271 561.771 77.7021 565.812 76.5771C569.854 75.4105 574.042 74.8271 578.375 74.8271C582.083 74.8271 585.667 75.2438 589.125 76.0771C592.583 76.9105 595.875 78.098 599 79.6396C602.125 81.1813 605.042 83.0563 607.75 85.2646C610.458 87.473 612.896 89.9313 615.062 92.6396L605.5 100.452C602.25 96.4105 598.292 93.2021 593.625 90.8271C589 88.4521 583.917 87.2646 578.375 87.2646C573.542 87.2646 569.021 88.223 564.812 90.1396C560.604 92.0146 556.917 94.5771 553.75 97.8271C550.583 101.077 548.083 104.89 546.25 109.265C544.458 113.598 543.562 118.244 543.562 123.202C543.562 128.16 544.458 132.827 546.25 137.202C548.083 141.577 550.583 145.39 553.75 148.64C556.917 151.89 560.604 154.473 564.812 156.39C569.021 158.265 573.542 159.202 578.375 159.202C583.417 159.202 588.104 158.202 592.438 156.202C596.812 154.16 600.604 151.369 603.812 147.827L603.562 134.515L565.312 136.015V122.952L615.75 121.327L616.75 151.39ZM702.375 171.327C701.167 167.077 699.917 162.869 698.625 158.702C697.333 154.494 695.979 150.265 694.562 146.015L644.25 148.202C642.708 152.202 641.229 156.181 639.812 160.14C638.396 164.098 637.021 168.098 635.688 172.14L621.5 170.202C627.375 154.452 633.875 138.952 641 123.702C648.167 108.452 655.792 93.348 663.875 78.3896L681.375 78.7021C688.542 93.1605 695.083 107.91 701 122.952C706.917 137.952 712.292 153.369 717.125 169.202L702.375 171.327ZM671.312 88.7646C667.104 96.7646 663.125 104.806 659.375 112.89C655.625 120.931 652.042 129.077 648.625 137.327L690.875 135.515C688.042 127.515 685 119.66 681.75 111.952C678.5 104.244 675.021 96.5146 671.312 88.7646ZM806 111.577C805.875 114.785 805.229 117.723 804.062 120.39C802.896 123.056 801.354 125.473 799.438 127.64C797.521 129.765 795.292 131.681 792.75 133.39C790.208 135.056 787.5 136.494 784.625 137.702L802.812 166.327L789.875 170.577L772.375 141.39C770.375 141.765 768.292 142.077 766.125 142.327C764 142.577 761.646 142.702 759.062 142.702C756.979 142.702 754.688 142.619 752.188 142.452C749.729 142.244 747.146 141.89 744.438 141.39L744.688 167.89L731.5 168.39V79.9521C735.083 78.8688 738.667 78.0563 742.25 77.5146C745.833 76.973 749.104 76.5563 752.062 76.2646C755.479 75.973 758.792 75.7855 762 75.7021C764.708 75.7021 767.708 75.8896 771 76.2646C774.292 76.6396 777.583 77.3063 780.875 78.2646C784.208 79.223 787.417 80.5563 790.5 82.2646C793.625 83.973 796.354 86.1605 798.688 88.8271C801.062 91.4521 802.917 94.6396 804.25 98.3896C805.583 102.14 806.167 106.535 806 111.577ZM762 88.2646C760.083 88.2646 758.104 88.348 756.062 88.5146C754.312 88.6396 752.375 88.8271 750.25 89.0771C748.125 89.2855 746.062 89.6188 744.062 90.0771L744.312 129.89C746.271 130.265 748.229 130.535 750.188 130.702C752.188 130.827 754.125 130.89 756 130.89C761 130.89 765.729 130.327 770.188 129.202C774.688 128.035 778.625 126.452 782 124.452C785.375 122.452 788.062 120.098 790.062 117.39C792.062 114.64 793.062 111.681 793.062 108.515C793.062 105.306 792.292 102.452 790.75 99.9521C789.25 97.4521 787.125 95.348 784.375 93.6396C781.625 91.8896 778.333 90.5563 774.5 89.6396C770.708 88.723 766.542 88.2646 762 88.2646ZM869.125 186.202L819.688 187.577L819.312 174.577L869.125 173.14V186.202ZM968.75 121.827C968.75 127.66 967.729 132.931 965.688 137.64C963.688 142.306 960.958 146.452 957.5 150.077C954.083 153.702 950.083 156.827 945.5 159.452C940.917 162.035 936.083 164.16 931 165.827C925.917 167.494 920.729 168.723 915.438 169.515C910.146 170.306 905.042 170.702 900.125 170.702C898.458 170.702 896.812 170.66 895.188 170.577C893.562 170.494 892.021 170.327 890.562 170.077L888.125 77.2646C891.375 77.0146 894.5 76.8271 897.5 76.7021C900.5 76.5771 903.312 76.5146 905.938 76.5146C910.562 76.5146 915.333 76.7021 920.25 77.0771C925.167 77.4105 929.938 78.1396 934.562 79.2646C939.229 80.348 943.625 81.9105 947.75 83.9521C951.917 85.9938 955.542 88.7021 958.625 92.0771C961.75 95.4105 964.208 99.5146 966 104.39C967.833 109.265 968.75 115.077 968.75 121.827ZM957 121.202C956.875 117.16 956.188 113.515 954.938 110.265C953.688 106.973 951.979 104.077 949.812 101.577C947.688 99.0771 945.188 96.9313 942.312 95.1396C939.438 93.3063 936.333 91.8063 933 90.6396C929.667 89.473 926.167 88.6188 922.5 88.0771C918.833 87.5355 915.146 87.2646 911.438 87.2646C909.854 87.2646 908.167 87.3271 906.375 87.4521C904.625 87.5355 902.812 87.6813 900.938 87.8896L902.875 158.577C903.583 158.66 904.292 158.702 905 158.702C905.75 158.702 906.479 158.702 907.188 158.702C911.354 158.702 915.5 158.327 919.625 157.577C923.75 156.827 927.667 155.723 931.375 154.265C935.125 152.806 938.583 151.015 941.75 148.89C944.917 146.723 947.646 144.265 949.938 141.515C952.229 138.723 954 135.64 955.25 132.265C956.542 128.848 957.125 125.16 957 121.202ZM1035.19 134.077L998.062 135.89L998.312 155.452L1052.31 152.39L1052.56 164.702L986.562 168.265L985.125 79.2021L1053 78.1396L1052.56 90.0771L997.438 90.9521L997.812 123.577L1034.94 122.077L1035.19 134.077ZM1157.19 77.7646C1151.31 93.5146 1144.81 109.035 1137.69 124.327C1130.56 139.577 1122.94 154.66 1114.81 169.577L1097.44 169.327C1083.15 140.41 1071.19 110.244 1061.56 78.8271L1076.31 76.6396C1078.31 83.723 1080.42 90.6396 1082.62 97.3896C1084.83 104.14 1087.19 110.827 1089.69 117.452C1092.19 124.077 1094.85 130.681 1097.69 137.265C1100.56 143.848 1103.62 150.473 1106.88 157.14C1113.96 144.473 1120.54 131.348 1126.62 117.765C1132.75 104.181 1138.21 90.223 1143 75.8896L1157.19 77.7646Z" fill="white"/>
<rect x="0.5" y="0.5" width="177.407" height="177.407" fill="#4E6A7F" stroke="white"/>
<rect x="112.641" y="114.341" width="78.8584" height="78.8584" fill="white" stroke="#4E6A7F"/>
<rect x="14.0928" y="15.7922" width="97.5486" height="97.5486" fill="white" stroke="#4E6A7F"/>
<rect x="112.642" y="114.341" width="65.2654" height="63.5663" fill="white" stroke="white"/>
<rect x="15.792" y="17.4912" width="94.1504" height="94.1504" fill="white" stroke="white"/>
</svg>
