<svg width="986" height="241" viewBox="0 0 986 241" fill="none" xmlns="http://www.w3.org/2000/svg">
<path d="M288.44 73.456C292.195 73.456 295.736 74.224 299.064 75.76C302.392 77.296 305.208 79.472 307.512 82.288L296.248 89.456C292.408 82.8853 287.715 79.6 282.168 79.6C279.779 79.6 277.475 80.1973 275.256 81.392C273.037 82.5867 271.203 84.2933 269.752 86.512C268.387 88.6453 267.704 91.0347 267.704 93.68C267.704 98.1173 269.24 101.744 272.312 104.56C275.384 107.376 279.053 108.784 283.32 108.784C286.221 108.784 288.696 108.357 290.744 107.504L291.896 111.6C284.216 113.989 277.56 117.573 271.928 122.352C266.296 127.131 263.48 133.019 263.48 140.016C263.48 144.88 264.803 148.891 267.448 152.048C270.179 155.205 273.805 156.784 278.328 156.784C284.387 156.784 290.147 154.992 295.608 151.408C301.069 147.739 305.123 143.472 307.768 138.608L311.864 141.936C307.683 149.189 302.008 155.248 294.84 160.112C287.757 164.976 280.077 167.408 271.8 167.408C263.779 167.408 257.379 165.317 252.6 161.136C247.821 156.869 245.432 151.28 245.432 144.368C245.432 138.395 247.651 133.019 252.088 128.24C256.611 123.376 262.115 119.408 268.6 116.336C264.675 115.227 261.475 113.093 259 109.936C256.611 106.779 255.416 103.237 255.416 99.312C255.416 94.1067 257.037 89.5413 260.28 85.616C263.523 81.6907 267.661 78.704 272.696 76.656C277.816 74.5227 283.064 73.456 288.44 73.456ZM374.345 153.712C374.345 154.907 374.601 155.973 375.113 156.912C375.71 157.765 376.564 158.192 377.673 158.192C378.782 158.192 379.892 157.723 381.001 156.784C382.196 155.845 383.092 154.821 383.689 153.712L386.505 156.144C384.969 159.131 382.836 161.691 380.105 163.824C377.46 165.872 374.601 166.896 371.529 166.896C367.092 166.896 363.892 165.701 361.929 163.312C359.966 160.837 359.028 157.083 359.113 152.048H358.473C356.51 156.485 353.95 160.197 350.793 163.184C347.636 166.085 343.838 167.536 339.401 167.536C334.708 167.536 330.697 166.341 327.369 163.952C324.041 161.563 321.524 158.363 319.817 154.352C318.11 150.256 317.257 145.733 317.257 140.784C317.257 134.469 318.537 128.283 321.097 122.224C323.742 116.08 327.54 111.045 332.489 107.12C337.438 103.195 343.198 101.232 349.769 101.232C353.097 101.232 356.126 102.043 358.857 103.664V53.104L374.345 47.728V153.712ZM349.513 109.424C345.417 109.424 342.004 110.832 339.273 113.648C336.628 116.379 334.665 119.792 333.385 123.888C332.105 127.899 331.465 131.867 331.465 135.792C331.465 141.083 332.489 146.117 334.537 150.896C336.67 155.675 339.998 158.064 344.521 158.064C349.982 158.064 353.737 155.291 355.785 149.744C357.833 144.112 358.857 138.011 358.857 131.44V113.648C356.041 110.832 352.926 109.424 349.513 109.424ZM428.451 100.848C432.888 100.848 437.07 101.915 440.995 104.048C445.006 106.181 447.992 109.168 449.955 113.008L437.539 118.128C436.259 115.227 434.552 113.008 432.419 111.472C430.371 109.851 428.11 109.04 425.635 109.04C421.966 109.04 418.723 110.448 415.907 113.264C413.091 115.995 410.915 119.408 409.379 123.504C407.928 127.6 407.203 131.611 407.203 135.536C407.203 141.595 408.27 146.885 410.403 151.408C412.536 155.845 415.95 158.064 420.643 158.064C426.019 158.064 429.731 155.248 431.779 149.616C433.912 143.984 434.979 137.925 434.979 131.44V125.808L450.083 120.432V159.728C450.083 166.299 448.376 172.997 444.963 179.824C441.55 186.736 436.942 192.411 431.139 196.848C425.336 201.371 419.064 203.632 412.323 203.632C407.544 203.632 403.619 202.053 400.547 198.896L411.427 188.528C414.158 192.112 417.358 193.904 421.027 193.904C426.744 193.904 430.499 191.728 432.291 187.376C434.168 183.109 435.107 177.435 435.107 170.352L434.979 161.392C434.979 157.552 435.32 154.437 436.003 152.048H434.979C432.504 156.656 429.731 160.411 426.659 163.312C423.587 166.128 419.875 167.536 415.523 167.536C408.526 167.536 403.107 165.104 399.267 160.24C395.427 155.376 393.507 149.232 393.507 141.808C393.507 134.811 394.958 128.155 397.859 121.84C400.846 115.525 404.984 110.448 410.275 106.608C415.651 102.768 421.71 100.848 428.451 100.848ZM500.082 102C504.605 102 508.786 102.896 512.626 104.688C516.551 106.48 519.453 109.253 521.33 113.008L508.914 118.128C507.719 115.909 506.055 114.075 503.922 112.624C501.789 111.173 499.527 110.448 497.138 110.448C491.421 110.448 486.898 112.837 483.57 117.616C480.242 122.395 478.578 128.368 478.578 135.536C478.578 142.107 479.559 147.525 481.522 151.792C483.485 155.973 486.599 158.064 490.866 158.064C496.839 158.064 500.935 155.291 503.154 149.744C505.373 144.112 506.482 138.011 506.482 131.44V125.808L521.458 120.432V153.712C521.458 154.907 521.714 155.973 522.226 156.912C522.823 157.765 523.677 158.192 524.786 158.192C526.919 158.192 529.095 156.699 531.314 153.712L533.746 156.144C532.466 159.131 530.418 161.691 527.602 163.824C524.871 165.872 521.927 166.896 518.77 166.896C514.674 166.896 511.687 165.531 509.81 162.8C507.933 159.984 506.994 156.4 506.994 152.048H506.482C504.434 156.656 501.703 160.411 498.29 163.312C494.877 166.128 490.909 167.536 486.386 167.536C479.559 167.536 474.269 165.061 470.514 160.112C466.845 155.077 465.01 148.549 465.01 140.528C465.01 133.701 466.461 127.344 469.362 121.456C472.349 115.568 476.487 110.875 481.778 107.376C487.154 103.792 493.255 102 500.082 102ZM559.591 134.384C562.236 128.325 565.351 123.291 568.935 119.28L568.551 118.768C565.65 120.475 562.151 121.328 558.055 121.328C555.41 121.328 552.978 120.901 550.759 120.048L542.439 137.84L537.191 135.536L545.767 117.872C545.511 117.616 544.7 116.891 543.335 115.696C541.97 114.501 541.116 113.307 540.775 112.112L553.063 98.288C554.002 101.787 555.794 104.859 558.439 107.504C561.17 110.064 564.199 111.344 567.527 111.344C572.732 111.344 578.194 109.467 583.911 105.712L586.215 108.144C581.266 112.752 577.042 118.213 573.543 124.528C570.044 130.843 568.295 137.2 568.295 143.6C568.295 147.525 569.276 150.811 571.239 153.456C573.287 156.101 576.231 157.424 580.071 157.424C582.631 157.424 585.362 156.485 588.263 154.608L590.183 156.912C587.708 160.069 584.722 162.587 581.223 164.464C577.81 166.341 574.226 167.28 570.471 167.28C565.778 167.28 562.151 165.744 559.591 162.672C557.031 159.515 555.751 155.547 555.751 150.768C555.751 145.819 557.031 140.357 559.591 134.384ZM605.562 185.584L609.658 175.472H652.922L648.954 185.584H605.562ZM725.845 153.712C725.845 154.907 726.101 155.973 726.613 156.912C727.21 157.765 728.064 158.192 729.173 158.192C730.282 158.192 731.392 157.723 732.501 156.784C733.696 155.845 734.592 154.821 735.189 153.712L738.005 156.144C736.469 159.131 734.336 161.691 731.605 163.824C728.96 165.872 726.101 166.896 723.029 166.896C718.592 166.896 715.392 165.701 713.429 163.312C711.466 160.837 710.528 157.083 710.613 152.048H709.973C708.01 156.485 705.45 160.197 702.293 163.184C699.136 166.085 695.338 167.536 690.901 167.536C686.208 167.536 682.197 166.341 678.869 163.952C675.541 161.563 673.024 158.363 671.317 154.352C669.61 150.256 668.757 145.733 668.757 140.784C668.757 134.469 670.037 128.283 672.597 122.224C675.242 116.08 679.04 111.045 683.989 107.12C688.938 103.195 694.698 101.232 701.269 101.232C704.597 101.232 707.626 102.043 710.357 103.664V53.104L725.845 47.728V153.712ZM701.013 109.424C696.917 109.424 693.504 110.832 690.773 113.648C688.128 116.379 686.165 119.792 684.885 123.888C683.605 127.899 682.965 131.867 682.965 135.792C682.965 141.083 683.989 146.117 686.037 150.896C688.17 155.675 691.498 158.064 696.021 158.064C701.482 158.064 705.237 155.291 707.285 149.744C709.333 144.112 710.357 138.011 710.357 131.44V113.648C707.541 110.832 704.426 109.424 701.013 109.424ZM782.383 100.848C787.332 100.848 791.471 102.128 794.799 104.688C798.127 107.163 799.791 110.789 799.791 115.568C799.791 119.408 797.7 123.717 793.519 128.496C789.423 133.189 784.516 137.584 778.799 141.68C773.167 145.691 768.346 148.592 764.335 150.384C767.919 156.101 773.167 158.96 780.079 158.96C783.919 158.96 787.759 157.893 791.599 155.76C795.524 153.541 798.852 150.64 801.583 147.056L804.143 150.128C799.706 155.675 795.012 159.984 790.063 163.056C785.199 166.043 779.396 167.536 772.655 167.536C767.194 167.536 762.287 166.299 757.935 163.824C753.668 161.349 750.298 157.979 747.823 153.712C745.434 149.36 744.239 144.496 744.239 139.12C744.239 132.635 745.988 126.448 749.487 120.56C753.071 114.587 757.807 109.808 763.695 106.224C769.583 102.64 775.812 100.848 782.383 100.848ZM775.087 109.168C771.844 109.168 768.943 110.363 766.383 112.752C763.823 115.056 761.818 118.043 760.367 121.712C758.916 125.381 758.191 129.179 758.191 133.104C758.191 138.224 759.3 142.619 761.519 146.288C764.676 144.496 768.004 142.021 771.503 138.864C775.087 135.621 778.074 132.165 780.463 128.496C782.852 124.827 784.047 121.499 784.047 118.512C784.047 115.525 783.236 113.221 781.615 111.6C780.079 109.979 777.903 109.168 775.087 109.168ZM860.623 97.264C864.207 98.6293 866.98 100.635 868.943 103.28C870.906 105.925 871.887 108.912 871.887 112.24C871.887 114.032 871.631 115.995 871.119 118.128C870.607 120.176 869.967 121.968 869.199 123.504L847.567 166.512C847.311 167.024 846.799 167.451 846.031 167.792C845.263 168.133 844.452 168.304 843.599 168.304C842.575 168.304 841.636 168.133 840.783 167.792C840.015 167.451 839.503 166.939 839.247 166.256L817.871 119.152C815.994 115.653 813.988 113.904 811.855 113.904C810.66 113.904 809.338 114.757 807.887 116.464L805.839 114.672C806.863 111.344 808.911 108.443 811.983 105.968C815.055 103.408 818.426 102.128 822.095 102.128C824.399 102.128 826.319 103.365 827.855 105.84C829.476 108.229 831.012 111.131 832.463 114.544L849.103 152.048L858.319 133.104C859.94 129.691 860.751 126.832 860.751 124.528C860.751 121.285 859.898 118.469 858.191 116.08C856.484 113.691 854.095 111.771 851.023 110.32L860.623 97.264Z" fill="black"/>
<rect x="0.5" y="0.735352" width="177.407" height="177.407" fill="#4E6A7F" stroke="white"/>
<rect x="112.641" y="114.576" width="78.8584" height="78.8584" fill="white" stroke="#4E6A7F"/>
<rect x="14.093" y="16.0276" width="97.5486" height="97.5486" fill="white" stroke="#4E6A7F"/>
<rect x="112.641" y="114.576" width="65.2654" height="63.5663" fill="white" stroke="white"/>
<rect x="15.792" y="17.7266" width="94.1504" height="94.1504" fill="white" stroke="white"/>
</svg>
